<?xml version="1.0" standalone="no"?>
<!DOCTYPE svg PUBLIC "-//W3C//DTD SVG 20010904//EN"
 "http://www.w3.org/TR/2001/REC-SVG-20010904/DTD/svg10.dtd">
<svg version="1.0" xmlns="http://www.w3.org/2000/svg"
 width="920.000000pt" height="512.000000pt" viewBox="0 0 920.000000 512.000000"
 preserveAspectRatio="xMidYMid meet">

<g transform="translate(0.000000,512.000000) scale(0.100000,-0.100000)"
fill="#000000" stroke="none">
<path d="M4570 5086 c-3 -3 -494 -150 -1090 -326 -597 -177 -1096 -328 -1108
-336 -36 -24 -49 -67 -69 -225 -26 -206 -25 -895 0 -1114 68 -572 178 -988
375 -1415 89 -193 260 -467 399 -640 351 -437 815 -756 1403 -962 l114 -41 71
23 c366 116 716 301 1007 532 132 105 352 324 458 458 372 469 622 1075 730
1770 68 438 80 1048 29 1450 -13 100 -29 143 -61 164 -22 14 -2160 652 -2223
663 -16 2 -32 2 -35 -1z m-74 -823 c49 -65 155 -62 201 6 22 33 23 41 23 278
0 228 1 244 18 239 50 -16 1099 -326 1732 -513 85 -25 158 -48 162 -52 4 -3
10 -42 13 -86 4 -44 9 -91 11 -105 10 -53 12 -592 3 -715 -45 -645 -180 -1177
-418 -1641 -264 -515 -644 -902 -1152 -1173 -86 -46 -293 -139 -346 -155 l-23
-7 0 371 c0 407 -1 414 -60 445 -58 30 -144 11 -172 -38 -10 -16 -14 -119 -18
-399 l-5 -377 -75 30 c-41 16 -138 60 -215 98 -933 459 -1488 1367 -1620 2656
-29 278 -27 872 3 1055 l7 45 950 281 950 281 5 -248 c5 -231 6 -249 26 -276z"/>
<path d="M4950 4043 c-78 -6 -204 -32 -278 -57 l-72 -25 -58 20 c-165 58 -460
78 -629 43 -294 -61 -485 -220 -548 -459 -35 -136 -28 -362 17 -530 12 -43 48
-131 82 -195 174 -333 184 -367 196 -696 5 -127 14 -271 20 -320 24 -185 74
-352 138 -459 88 -150 152 -195 277 -195 62 0 78 4 125 33 46 27 60 43 89 99
l33 66 9 234 c8 255 17 325 55 468 47 173 103 268 170 290 70 23 118 -23 177
-170 72 -181 99 -341 101 -605 1 -195 3 -214 24 -260 47 -103 123 -154 229
-155 102 0 166 36 232 130 127 181 187 420 197 780 9 345 34 453 156 673 129
233 161 354 162 597 0 227 -43 349 -169 476 -104 105 -227 166 -404 200 -75
14 -249 23 -331 17z m-556 -282 c52 -14 146 -55 273 -121 106 -55 204 -100
219 -100 40 0 93 30 109 61 8 15 15 49 15 75 0 41 -5 51 -37 82 l-37 35 144
-6 c87 -3 169 -11 205 -21 137 -38 235 -108 282 -204 26 -53 28 -67 31 -197 5
-219 -6 -259 -163 -554 -108 -204 -137 -343 -154 -731 -14 -321 -50 -483 -133
-610 -42 -65 -47 -52 -40 106 11 276 -52 587 -164 805 -51 98 -114 168 -188
207 -45 24 -62 27 -146 27 -85 0 -101 -3 -155 -29 -130 -64 -220 -196 -284
-416 -47 -161 -61 -265 -71 -513 -4 -126 -10 -231 -13 -233 -8 -9 -77 112 -98
173 -41 116 -59 241 -70 483 -17 389 -46 527 -154 731 -107 201 -135 265 -150
334 -20 94 -20 305 0 372 38 130 161 220 350 260 92 19 330 10 429 -16z"/>
</g>
</svg>
